<svg viewBox="0 0 100 100" version="1.1" xmlns="http://www.w3.org/2000/svg"
     id="el_q9TJh6D9M">
  <style>@-webkit-keyframes el_R9UW4-P7ah_cFTtL09b-_Animation{0%{-webkit-transform: translate(50.609373807907104px,
    50.12313608825207px) rotate(0deg) translate(-50.609373807907104px, -50.12313608825207px);transform:
    translate(50.609373807907104px, 50.12313608825207px) rotate(0deg) translate(-50.609373807907104px,
    -50.12313608825207px);}100%{-webkit-transform: translate(50.609373807907104px, 50.12313608825207px) rotate(360deg)
    translate(-50.609373807907104px, -50.12313608825207px);transform: translate(50.609373807907104px,
    50.12313608825207px) rotate(360deg) translate(-50.609373807907104px, -50.12313608825207px);}}@keyframes
    el_R9UW4-P7ah_cFTtL09b-_Animation{0%{-webkit-transform: translate(50.609373807907104px, 50.12313608825207px)
    rotate(0deg) translate(-50.609373807907104px, -50.12313608825207px);transform: translate(50.609373807907104px,
    50.12313608825207px) rotate(0deg) translate(-50.609373807907104px, -50.12313608825207px);}100%{-webkit-transform:
    translate(50.609373807907104px, 50.12313608825207px) rotate(360deg) translate(-50.609373807907104px,
    -50.12313608825207px);transform: translate(50.609373807907104px, 50.12313608825207px) rotate(360deg)
    translate(-50.609373807907104px, -50.12313608825207px);}}#el_q9TJh6D9M *{-webkit-animation-duration:
    3s;animation-duration: 3s;-webkit-animation-iteration-count: infinite;animation-iteration-count:
    infinite;-webkit-animation-timing-function: cubic-bezier(0, 0, 1, 1);animation-timing-function: cubic-bezier(0, 0,
    1, 1);}#el_S-2d9yQa5L{stroke: none;stroke-width: 1;fill: none;}#el_R9UW4-P7ah{-webkit-transform: translate(12px,
    6px);transform: translate(12px, 6px);fill: #BCBCBC;}#el_xmvLW_YrWI{-webkit-transform: translate(28px,
    39px);transform: translate(28px, 39px);}#el_nq-cSg8kZ_{fill: #7942A8;}#el_8sF3o8gajn{fill:
    #B72779;}#el_VCHGuqeFrW{fill: #EE4037;}#el_kL3ZG-zAr2{fill:
    #F59121;}#el_R9UW4-P7ah_cFTtL09b-{-webkit-animation-name: el_R9UW4-P7ah_cFTtL09b-_Animation;animation-name:
    el_R9UW4-P7ah_cFTtL09b-_Animation;-webkit-transform: translate(50.609373807907104px, 50.12313608825207px)
    rotate(0deg) translate(-50.609373807907104px, -50.12313608825207px);transform: translate(50.609373807907104px,
    50.12313608825207px) rotate(0deg) translate(-50.609373807907104px, -50.12313608825207px);}
  </style>
  <!-- Generator: Sketch 52.5 (67469) - http://www.bohemiancoding.com/sketch -->
  <title>both in one</title>
  <desc>Created with Sketch.</desc>
  <g id="el_S-2d9yQa5L" fill-rule="evenodd">
    <g id="el_R9UW4-P7ah_cFTtL09b-" data-animator-group="true" data-animator-type="1">
      <g id="el_R9UW4-P7ah" fill-rule="nonzero">
        <path
          d="M2.04181362,19.9352748 C3.07651646,18.0314216 14.0719587,0.344900949 38.4633538,0.165552455 C64.0550042,-0.0137960379 75.3539593,20.2525837 75.7333503,21.1217341 C77.4164669,25.0053188 76.699073,29.9925865 73.1327972,31.7722754 C69.0422719,33.814089 64.7655001,32.5862416 62.4822559,29.3579688 C57.7709089,22.7358705 57.2535575,14.3892676 45.1337381,9.44338797 C18.8660819,-1.29682757 0.965722656,21.8598221 2.02111956,19.9283768 L2.04181362,19.9352748 Z M75.1884068,68.3317759 C74.1675,70.2218331 63.1720578,87.9221498 38.7806627,88.0808043 C13.1890123,88.2532547 1.87626116,68.0075691 1.50376814,67.1108266 C-0.206940569,63.247936 0.517351423,58.2675663 4.06983119,56.4878774 C8.16725446,54.4460638 12.4509242,55.6808092 14.7272705,58.902184 C19.4455155,65.5380783 19.9559689,73.8708852 32.0826862,78.8236628 C58.3641385,89.5431843 76.2713958,66.4072287 75.1953048,68.338674 L75.1884068,68.3317759 Z"
          id="el_j8B3lfKba6"/>
      </g>
    </g>
    <g id="el_xmvLW_YrWI">
      <path
        d="M39.11384,0.20004 C42.95724,0.20004 45.75924,3.82904 44.80364,7.55164 C43.70864,11.81804 41.68744,15.50704 39.06264,18.18624 C35.55164,18.07444 32.35684,16.70264 29.91364,14.50744 C31.55004,11.82564 32.73624,8.63344 33.31744,5.13444 C33.78944,2.29224 36.23264,0.20004 39.11384,0.20004"
        id="el_nq-cSg8kZ_"/>
      <path
        d="M29.91354,14.50736 C27.50054,12.33796 25.82474,9.36376 25.30774,6.00856 C25.11194,4.73856 24.02474,3.79896 22.73974,3.79896 C21.46014,3.79896 20.36774,4.72996 20.17414,5.99496 C19.63774,9.50016 17.83694,12.58776 15.25034,14.77936 C17.16174,17.80636 19.65274,20.15356 22.49594,21.50116 C24.25534,22.33676 26.14674,22.79276 28.12214,22.79276 L28.86594,22.79276 C32.70074,22.79276 36.23154,21.07736 39.06254,18.18636 C35.55174,18.07436 32.35674,16.70276 29.91354,14.50736"
        id="el_8sF3o8gajn"/>
      <path
        d="M22.49596,21.5013 C20.73656,22.3369 18.84516,22.7927 16.86976,22.7927 L16.12596,22.7927 C12.29516,22.7927 8.76836,21.0813 5.94136,18.1981 L5.94536,18.1943 C9.49196,18.1943 12.73896,16.9107 15.25016,14.7795 C17.16176,17.8063 19.65276,20.1537 22.49596,21.5013"
        id="el_VCHGuqeFrW"/>
      <path
        d="M11.67136,5.11146 C12.27196,8.73966 13.52356,12.03886 15.25036,14.77946 C12.73896,16.91066 9.49216,18.19426 5.94536,18.19426 L5.94136,18.19826 C3.31036,15.51786 1.28496,11.82546 0.18836,7.55366 C-0.76744,3.83006 2.03416,0.20006 5.87856,0.20006 C8.75096,0.20006 11.20236,2.27766 11.67136,5.11146"
        id="el_kL3ZG-zAr2"/>
    </g>
  </g>
</svg>
